# xmcd CD database file
#
# Track frame offsets:
#	150
#	32005
#	48358
#	75256
#	104759
#	125641
#	146036
#	164369
#	181836
#	207259
#	245800
#	268033
#	285770
#	324308
#
# Disc length: 4791 seconds
#
# Revision: 0
# Processed by: cddbd v1.5.2PL0 Copyright (c) Steve Scherf et al.
# Submitted via: CDex 1.70beta2
#
DISCID=c412b50e
DTITLE=ヨシミ22歳 - ヨシミCD3「ストーカーはつらいよ　ヨシミ22歳ハイビスカスの花」
DYEAR=2006
DGENRE=New Age
TTITLE0=ayame - deep green
TTITLE1=雨の本厚木
TTITLE2=いろいろ過ぎ去ったあなたとの想い出は今でも私の心に残っています
TTITLE3=布団のうた
TTITLE4=Love has gone (#0606)
TTITLE5=追憶のコミケット(C56)
TTITLE6=空を見ていた
TTITLE7=バーチャル青森音頭
TTITLE8=流星雨
TTITLE9=そら。
TTITLE10=みんなのために
TTITLE11=ヨシミ22歳・愛のテーマ
TTITLE12=布団のうた（ボーナストラック）
TTITLE13=CD extra
EXTD=YEAR: 2006
EXTT0=
EXTT1=
EXTT2=
EXTT3=
EXTT4=
EXTT5=
EXTT6=
EXTT7=
EXTT8=
EXTT9=
EXTT10=
EXTT11=
EXTT12=
EXTT13=
PLAYORDER=
